<?xml version="1.0" encoding="UTF-8" standalone="no"?>
<!-- Created with Inkscape (http://www.inkscape.org/) -->

<svg
   width="256"
   height="256"
   viewBox="0 0 67.733332 67.733333"
   version="1.1"
   id="svg1"
   inkscape:version="1.4.3 (fcd0343856, 2026-01-01)"
   sodipodi:docname="FloorPlan.svg"
   xmlns:inkscape="http://www.inkscape.org/namespaces/inkscape"
   xmlns:sodipodi="http://sodipodi.sourceforge.net/DTD/sodipodi-0.dtd"
   xmlns="http://www.w3.org/2000/svg"
   xmlns:svg="http://www.w3.org/2000/svg">
  <sodipodi:namedview
     id="namedview1"
     pagecolor="#ffffff"
     bordercolor="#000000"
     borderopacity="0.25"
     inkscape:showpageshadow="2"
     inkscape:pageopacity="0.0"
     inkscape:pagecheckerboard="0"
     inkscape:deskcolor="#d1d1d1"
     inkscape:document-units="mm"
     inkscape:zoom="1.4307099"
     inkscape:cx="7.688491"
     inkscape:cy="121.26847"
     inkscape:window-width="1920"
     inkscape:window-height="1011"
     inkscape:window-x="0"
     inkscape:window-y="0"
     inkscape:window-maximized="1"
     inkscape:current-layer="layer1" />
  <defs
     id="defs1" />
  <g
     inkscape:label="Layer 1"
     inkscape:groupmode="layer"
     id="layer1">
    <path
       style="fill:none;stroke:#000000;stroke-width:0.264583"
       d="m 28.941781,58.94292 v 4.303655 H 8.5993149 V 7.1198631 H 61.397261 V 63.246573 H 39.667808 v -4.345888 z"
       id="path1" />
    <path
       style="fill:none;stroke:#000000;stroke-width:0.264583"
       d="m 10.673801,8.9574929 h 3.138391 v 2.8768591 h -3.122046 z"
       id="path2" />
    <path
       style="fill:none;stroke:#000000;stroke-width:0.264583"
       d="m 14.797817,8.9831973 h 3.13839 v 2.8768587 h -3.122045 z"
       id="path2-6" />
    <path
       style="fill:none;stroke:#000000;stroke-width:0.264583"
       d="m 10.664063,12.432159 h 3.13839 v 2.876859 h -3.122045 z"
       id="path2-6-2" />
    <path
       style="fill:none;stroke:#000000;stroke-width:0.264583"
       d="m 14.797817,12.409485 h 3.138389 v 2.876859 h -3.122044 z"
       id="path2-6-2-5" />
    <path
       style="fill:none;stroke:#000000;stroke-width:0.264583"
       d="m 17.996715,8.2219325 h -7.976746 v 7.7479045 h 8.042129"
       id="path3" />
    <path
       style="fill:none;stroke:#000000;stroke-width:0.264583"
       d="m 10.673452,17.363971 h 3.138391 v 2.876859 h -3.122046 z"
       id="path2-9" />
    <path
       style="fill:none;stroke:#000000;stroke-width:0.264583"
       d="m 14.797468,17.389675 h 3.13839 v 2.876859 h -3.122045 z"
       id="path2-6-7" />
    <path
       style="fill:none;stroke:#000000;stroke-width:0.264583"
       d="m 10.663714,20.838637 h 3.13839 v 2.876859 h -3.122045 z"
       id="path2-6-2-3" />
    <path
       style="fill:none;stroke:#000000;stroke-width:0.264583"
       d="m 14.797468,20.815963 h 3.138389 v 2.876859 h -3.122044 z"
       id="path2-6-2-5-6" />
    <path
       style="fill:none;stroke:#000000;stroke-width:0.264583"
       d="M 17.996366,16.62841 H 10.01962 v 7.747905 h 8.042129"
       id="path3-1" />
    <path
       style="fill:none;stroke:#000000;stroke-width:0.264583"
       d="m 10.705155,25.86772 h 3.138391 v 2.876859 H 10.7215 Z"
       id="path2-94" />
    <path
       style="fill:none;stroke:#000000;stroke-width:0.264583"
       d="m 14.829171,25.893424 h 3.13839 v 2.876859 h -3.122045 z"
       id="path2-6-78" />
    <path
       style="fill:none;stroke:#000000;stroke-width:0.264583"
       d="m 10.695417,29.342386 h 3.13839 v 2.876859 h -3.122045 z"
       id="path2-6-2-4" />
    <path
       style="fill:none;stroke:#000000;stroke-width:0.264583"
       d="m 14.829171,29.319712 h 3.138389 v 2.876859 h -3.122044 z"
       id="path2-6-2-5-5" />
    <path
       style="fill:none;stroke:#000000;stroke-width:0.264583"
       d="m 18.028069,25.132159 h -7.976746 v 7.747905 h 8.042129"
       id="path3-0" />
    <path
       style="fill:none;stroke:#000000;stroke-width:0.264583"
       d="m 10.714919,34.341283 h 3.138391 v 2.876859 h -3.122046 z"
       id="path2-63" />
    <path
       style="fill:none;stroke:#000000;stroke-width:0.264583"
       d="m 14.838935,34.366987 h 3.13839 v 2.876859 H 14.85528 Z"
       id="path2-6-20" />
    <path
       style="fill:none;stroke:#000000;stroke-width:0.264583"
       d="m 10.705181,37.815949 h 3.13839 v 2.876859 h -3.122045 z"
       id="path2-6-2-6" />
    <path
       style="fill:none;stroke:#000000;stroke-width:0.264583"
       d="m 14.838935,37.793275 h 3.138389 v 2.876859 H 14.85528 Z"
       id="path2-6-2-5-1" />
    <path
       style="fill:none;stroke:#000000;stroke-width:0.264583"
       d="m 18.037833,33.605722 h -7.976746 v 7.747905 h 8.042129"
       id="path3-5" />
    <path
       style="fill:none;stroke:#000000;stroke-width:0.264583"
       d="m 10.738293,42.899901 h 3.138391 v 2.876859 h -3.122046 z"
       id="path2-5" />
    <path
       style="fill:none;stroke:#000000;stroke-width:0.264583"
       d="m 14.862309,42.925605 h 3.13839 v 2.876859 h -3.122045 z"
       id="path2-6-6" />
    <path
       style="fill:none;stroke:#000000;stroke-width:0.264583"
       d="m 10.728555,46.374567 h 3.13839 v 2.876859 H 10.7449 Z"
       id="path2-6-2-9" />
    <path
       style="fill:none;stroke:#000000;stroke-width:0.264583"
       d="m 14.862309,46.351893 h 3.138389 v 2.876859 h -3.122044 z"
       id="path2-6-2-5-3" />
    <path
       style="fill:none;stroke:#000000;stroke-width:0.264583"
       d="m 18.061207,42.16434 h -7.976746 v 7.747905 h 8.042129"
       id="path3-7" />
    <path
       style="fill:none;stroke:#000000;stroke-width:0.264583"
       d="m 10.790061,51.38215 h 3.138391 v 2.876859 h -3.122046 z"
       id="path2-4" />
    <path
       style="fill:none;stroke:#000000;stroke-width:0.264583"
       d="m 14.914077,51.407854 h 3.13839 v 2.876859 h -3.122045 z"
       id="path2-6-74" />
    <path
       style="fill:none;stroke:#000000;stroke-width:0.264583"
       d="m 10.780323,54.856816 h 3.13839 v 2.876859 h -3.122045 z"
       id="path2-6-2-43" />
    <path
       style="fill:none;stroke:#000000;stroke-width:0.264583"
       d="m 14.914077,54.834142 h 3.138389 v 2.876859 h -3.122044 z"
       id="path2-6-2-5-0" />
    <path
       style="fill:none;stroke:#000000;stroke-width:0.264583"
       d="m 18.112975,50.646589 h -7.976746 v 7.747905 h 8.042129"
       id="path3-78" />
    <path
       style="fill:none;stroke:#000000;stroke-width:0.264583"
       d="m 20.441493,8.8822982 h 3.138391 v 2.8768588 h -3.122046 z"
       id="path2-0" />
    <path
       style="fill:none;stroke:#000000;stroke-width:0.264583"
       d="m 24.565509,8.9080026 h 3.13839 v 2.8768584 h -3.122045 z"
       id="path2-6-68" />
    <path
       style="fill:none;stroke:#000000;stroke-width:0.264583"
       d="m 20.431755,12.356964 h 3.13839 v 2.876859 H 20.4481 Z"
       id="path2-6-2-92" />
    <path
       style="fill:none;stroke:#000000;stroke-width:0.264583"
       d="m 24.565509,12.33429 h 3.138389 v 2.876859 h -3.122044 z"
       id="path2-6-2-5-66" />
    <path
       style="fill:none;stroke:#000000;stroke-width:0.264583"
       d="M 27.764407,8.1467378 H 19.787661 V 15.894642 H 27.82979"
       id="path3-4" />
    <path
       style="fill:none;stroke:#000000;stroke-width:0.264583"
       d="m 20.441144,17.288776 h 3.138391 v 2.876859 h -3.122046 z"
       id="path2-9-9" />
    <path
       style="fill:none;stroke:#000000;stroke-width:0.264583"
       d="m 24.56516,17.31448 h 3.13839 v 2.876859 h -3.122045 z"
       id="path2-6-7-5" />
    <path
       style="fill:none;stroke:#000000;stroke-width:0.264583"
       d="m 20.431406,20.763442 h 3.13839 v 2.876859 h -3.122045 z"
       id="path2-6-2-3-0" />
    <path
       style="fill:none;stroke:#000000;stroke-width:0.264583"
       d="m 24.56516,20.740768 h 3.138389 v 2.876859 h -3.122044 z"
       id="path2-6-2-5-6-4" />
    <path
       style="fill:none;stroke:#000000;stroke-width:0.264583"
       d="m 27.764058,16.553215 h -7.976746 v 7.747905 h 8.042129"
       id="path3-1-8" />
    <path
       style="fill:none;stroke:#000000;stroke-width:0.264583"
       d="m 20.472847,25.792525 h 3.138391 v 2.876859 h -3.122046 z"
       id="path2-94-7" />
    <path
       style="fill:none;stroke:#000000;stroke-width:0.264583"
       d="m 24.596863,25.818229 h 3.13839 v 2.876859 h -3.122045 z"
       id="path2-6-78-1" />
    <path
       style="fill:none;stroke:#000000;stroke-width:0.264583"
       d="m 20.463109,29.267191 h 3.13839 v 2.876859 h -3.122045 z"
       id="path2-6-2-4-7" />
    <path
       style="fill:none;stroke:#000000;stroke-width:0.264583"
       d="m 24.596863,29.244517 h 3.138389 v 2.876859 h -3.122044 z"
       id="path2-6-2-5-5-2" />
    <path
       style="fill:none;stroke:#000000;stroke-width:0.264583"
       d="m 27.795761,25.056964 h -7.976746 v 7.747905 h 8.042129"
       id="path3-0-7" />
    <path
       style="fill:none;stroke:#000000;stroke-width:0.264583"
       d="m 20.482611,34.266088 h 3.138391 v 2.876859 h -3.122046 z"
       id="path2-63-2" />
    <path
       style="fill:none;stroke:#000000;stroke-width:0.264583"
       d="m 24.606627,34.291792 h 3.13839 v 2.876859 h -3.122045 z"
       id="path2-6-20-2" />
    <path
       style="fill:none;stroke:#000000;stroke-width:0.264583"
       d="m 20.472873,37.740754 h 3.13839 v 2.876859 h -3.122045 z"
       id="path2-6-2-6-6" />
    <path
       style="fill:none;stroke:#000000;stroke-width:0.264583"
       d="m 24.606627,37.71808 h 3.138389 v 2.876859 h -3.122044 z"
       id="path2-6-2-5-1-1" />
    <path
       style="fill:none;stroke:#000000;stroke-width:0.264583"
       d="m 27.805525,33.530527 h -7.976746 v 7.747905 h 8.042129"
       id="path3-5-0" />
    <path
       style="fill:none;stroke:#000000;stroke-width:0.264583"
       d="m 20.505985,42.824706 h 3.138391 v 2.876859 H 20.52233 Z"
       id="path2-5-6" />
    <path
       style="fill:none;stroke:#000000;stroke-width:0.264583"
       d="m 24.630001,42.85041 h 3.13839 v 2.876859 h -3.122045 z"
       id="path2-6-6-1" />
    <path
       style="fill:none;stroke:#000000;stroke-width:0.264583"
       d="m 20.496247,46.299372 h 3.13839 v 2.876859 h -3.122045 z"
       id="path2-6-2-9-5" />
    <path
       style="fill:none;stroke:#000000;stroke-width:0.264583"
       d="m 24.630001,46.276698 h 3.138389 v 2.876859 h -3.122044 z"
       id="path2-6-2-5-3-9" />
    <path
       style="fill:none;stroke:#000000;stroke-width:0.264583"
       d="m 27.828899,42.089145 h -7.976746 v 7.747905 h 8.042129"
       id="path3-7-4" />
    <path
       style="fill:none;stroke:#000000;stroke-width:0.264583"
       d="m 20.557753,51.306955 h 3.138391 v 2.876859 h -3.122046 z"
       id="path2-4-9" />
    <path
       style="fill:none;stroke:#000000;stroke-width:0.264583"
       d="m 24.681769,51.332659 h 3.13839 v 2.876859 h -3.122045 z"
       id="path2-6-74-0" />
    <path
       style="fill:none;stroke:#000000;stroke-width:0.264583"
       d="m 20.548015,54.781621 h 3.13839 V 57.65848 H 20.56436 Z"
       id="path2-6-2-43-9" />
    <path
       style="fill:none;stroke:#000000;stroke-width:0.264583"
       d="m 24.681769,54.758947 h 3.138389 v 2.876859 h -3.122044 z"
       id="path2-6-2-5-0-1" />
    <path
       style="fill:none;stroke:#000000;stroke-width:0.264583"
       d="m 27.880667,50.571394 h -7.976746 v 7.747905 h 8.042129"
       id="path3-78-7" />
    <path
       style="fill:none;stroke:#000000;stroke-width:0.264583"
       d="m 29.553187,7.9113626 h 9.807475 V 18.176518 h -9.742091 z"
       id="path4" />
    <path
       style="fill:none;stroke:#000000;stroke-width:0.264583"
       d="m 29.499681,29.259325 h 9.807475 v 10.265156 h -9.742091 z"
       id="path4-3" />
    <path
       style="fill:none;stroke:#000000;stroke-width:0.266145"
       d="m 49.24373,57.765134 h -3.156915 v -2.893839 h 3.140474 z"
       id="path2-97" />
    <path
       style="fill:none;stroke:#000000;stroke-width:0.266145"
       d="m 45.095372,57.739279 h -3.156914 v -2.89384 h 3.140473 z"
       id="path2-6-76" />
    <path
       style="fill:none;stroke:#000000;stroke-width:0.266145"
       d="m 49.253526,54.269959 h -3.156914 v -2.89384 h 3.140472 z"
       id="path2-6-2-7" />
    <path
       style="fill:none;stroke:#000000;stroke-width:0.266145"
       d="m 45.095372,54.292767 h -3.156913 v -2.89384 h 3.140472 z"
       id="path2-6-2-5-36" />
    <path
       style="fill:none;stroke:#000000;stroke-width:0.266145"
       d="m 41.877593,58.505037 h 8.023829 V 50.7114 h -8.089598"
       id="path3-56" />
    <path
       style="fill:none;stroke:#000000;stroke-width:0.266145"
       d="m 49.244082,49.309037 h -3.156916 v -2.89384 h 3.140474 z"
       id="path2-9-3" />
    <path
       style="fill:none;stroke:#000000;stroke-width:0.266145"
       d="m 45.095724,49.283181 h -3.156915 v -2.893839 h 3.140473 z"
       id="path2-6-7-9" />
    <path
       style="fill:none;stroke:#000000;stroke-width:0.266145"
       d="m 49.253877,45.813862 h -3.156914 v -2.89384 h 3.140473 z"
       id="path2-6-2-3-4" />
    <path
       style="fill:none;stroke:#000000;stroke-width:0.266145"
       d="M 45.095724,45.83667 H 41.93881 v -2.89384 h 3.140472 z"
       id="path2-6-2-5-6-8" />
    <path
       style="fill:none;stroke:#000000;stroke-width:0.266145"
       d="m 41.877944,50.04894 h 8.023829 v -7.793637 h -8.089598"
       id="path3-1-1" />
    <path
       style="fill:none;stroke:#000000;stroke-width:0.266145"
       d="M 49.212191,40.755094 H 46.055276 V 37.861255 H 49.19575 Z"
       id="path2-94-2" />
    <path
       style="fill:none;stroke:#000000;stroke-width:0.266145"
       d="m 45.063833,40.729239 h -3.156914 v -2.89384 h 3.140473 z"
       id="path2-6-78-9" />
    <path
       style="fill:none;stroke:#000000;stroke-width:0.266145"
       d="M 49.221987,37.259919 H 46.065073 V 34.36608 h 3.140472 z"
       id="path2-6-2-4-3" />
    <path
       style="fill:none;stroke:#000000;stroke-width:0.266145"
       d="M 45.063833,37.282727 H 41.90692 v -2.89384 h 3.140472 z"
       id="path2-6-2-5-5-9" />
    <path
       style="fill:none;stroke:#000000;stroke-width:0.266145"
       d="m 41.846054,41.494997 h 8.023829 V 33.70136 h -8.089598"
       id="path3-0-0" />
    <path
       style="fill:none;stroke:#000000;stroke-width:0.266145"
       d="m 49.20237,32.231516 h -3.156916 v -2.893839 h 3.140474 z"
       id="path2-63-8" />
    <path
       style="fill:none;stroke:#000000;stroke-width:0.266145"
       d="M 45.054012,32.20566 H 41.897097 V 29.311821 H 45.03757 Z"
       id="path2-6-20-8" />
    <path
       style="fill:none;stroke:#000000;stroke-width:0.266145"
       d="m 49.212165,28.736341 h -3.156914 v -2.89384 h 3.140473 z"
       id="path2-6-2-6-5" />
    <path
       style="fill:none;stroke:#000000;stroke-width:0.266145"
       d="m 45.054012,28.759149 h -3.156914 v -2.89384 h 3.140472 z"
       id="path2-6-2-5-1-0" />
    <path
       style="fill:none;stroke:#000000;stroke-width:0.266145"
       d="m 41.836232,32.971419 h 8.023829 v -7.793637 h -8.089598"
       id="path3-5-9" />
    <path
       style="fill:none;stroke:#000000;stroke-width:0.266145"
       d="m 49.178858,23.622381 h -3.156916 v -2.89384 h 3.140474 z"
       id="path2-5-63" />
    <path
       style="fill:none;stroke:#000000;stroke-width:0.266145"
       d="m 45.0305,23.596525 h -3.156915 v -2.89384 h 3.140473 z"
       id="path2-6-6-8" />
    <path
       style="fill:none;stroke:#000000;stroke-width:0.266145"
       d="m 49.188653,20.127206 h -3.156914 v -2.89384 h 3.140473 z"
       id="path2-6-2-9-56" />
    <path
       style="fill:none;stroke:#000000;stroke-width:0.266145"
       d="m 45.0305,20.150013 h -3.156914 v -2.893839 h 3.140472 z"
       id="path2-6-2-5-3-1" />
    <path
       style="fill:none;stroke:#000000;stroke-width:0.266145"
       d="m 41.81272,24.362284 h 8.023829 v -7.793638 h -8.089598"
       id="path3-7-1" />
    <path
       style="fill:none;stroke:#000000;stroke-width:0.266145"
       d="m 49.126784,15.090065 h -3.156915 v -2.893839 h 3.140474 z"
       id="path2-4-5" />
    <path
       style="fill:none;stroke:#000000;stroke-width:0.266145"
       d="m 44.978426,15.06421 h -3.156914 v -2.89384 h 3.140473 z"
       id="path2-6-74-9" />
    <path
       style="fill:none;stroke:#000000;stroke-width:0.266145"
       d="M 49.13658,11.59489 H 45.979665 V 8.7010507 h 3.140473 z"
       id="path2-6-2-43-8" />
    <path
       style="fill:none;stroke:#000000;stroke-width:0.266145"
       d="M 44.978426,11.617698 H 41.821513 V 8.7238585 h 3.140472 z"
       id="path2-6-2-5-0-4" />
    <path
       style="fill:none;stroke:#000000;stroke-width:0.266145"
       d="m 41.760647,15.829968 h 8.023829 V 8.0363312 h -8.089598"
       id="path3-78-8" />
    <path
       style="fill:none;stroke:#000000;stroke-width:0.266145"
       d="M 59.482201,57.720437 H 56.325286 V 54.826598 H 59.46576 Z"
       id="path2-97-4" />
    <path
       style="fill:none;stroke:#000000;stroke-width:0.266145"
       d="m 55.333843,57.694582 h -3.156914 v -2.89384 h 3.140473 z"
       id="path2-6-76-4" />
    <path
       style="fill:none;stroke:#000000;stroke-width:0.266145"
       d="m 59.491997,54.225262 h -3.156914 v -2.89384 h 3.140472 z"
       id="path2-6-2-7-4" />
    <path
       style="fill:none;stroke:#000000;stroke-width:0.266145"
       d="M 55.333843,54.24807 H 52.17693 v -2.89384 h 3.140472 z"
       id="path2-6-2-5-36-4" />
    <path
       style="fill:none;stroke:#000000;stroke-width:0.266145"
       d="m 52.116064,58.46034 h 8.023829 v -7.793637 h -8.089598"
       id="path3-56-7" />
    <path
       style="fill:none;stroke:#000000;stroke-width:0.266145"
       d="M 59.482553,49.26434 H 56.325637 V 46.3705 h 3.140474 z"
       id="path2-9-3-6" />
    <path
       style="fill:none;stroke:#000000;stroke-width:0.266145"
       d="M 55.334195,49.238484 H 52.17728 v -2.893839 h 3.140473 z"
       id="path2-6-7-9-3" />
    <path
       style="fill:none;stroke:#000000;stroke-width:0.266145"
       d="m 59.492348,45.769165 h -3.156914 v -2.89384 h 3.140473 z"
       id="path2-6-2-3-4-1" />
    <path
       style="fill:none;stroke:#000000;stroke-width:0.266145"
       d="m 55.334195,45.791973 h -3.156914 v -2.89384 h 3.140472 z"
       id="path2-6-2-5-6-8-7" />
    <path
       style="fill:none;stroke:#000000;stroke-width:0.266145"
       d="m 52.116415,50.004243 h 8.023829 v -7.793637 h -8.089598"
       id="path3-1-1-5" />
    <path
       style="fill:none;stroke:#000000;stroke-width:0.266145"
       d="m 59.450662,40.710397 h -3.156915 v -2.893839 h 3.140474 z"
       id="path2-94-2-9" />
    <path
       style="fill:none;stroke:#000000;stroke-width:0.266145"
       d="M 55.302304,40.684542 H 52.14539 v -2.89384 h 3.140473 z"
       id="path2-6-78-9-6" />
    <path
       style="fill:none;stroke:#000000;stroke-width:0.266145"
       d="m 59.460458,37.215222 h -3.156914 v -2.893839 h 3.140472 z"
       id="path2-6-2-4-3-2" />
    <path
       style="fill:none;stroke:#000000;stroke-width:0.266145"
       d="m 55.302304,37.23803 h -3.156913 v -2.89384 h 3.140472 z"
       id="path2-6-2-5-5-9-1" />
    <path
       style="fill:none;stroke:#000000;stroke-width:0.266145"
       d="m 52.084525,41.4503 h 8.023829 v -7.793637 h -8.089598"
       id="path3-0-0-7" />
    <path
       style="fill:none;stroke:#000000;stroke-width:0.266145"
       d="M 59.440841,32.186819 H 56.283925 V 29.29298 h 3.140474 z"
       id="path2-63-8-8" />
    <path
       style="fill:none;stroke:#000000;stroke-width:0.266145"
       d="m 55.292483,32.160963 h -3.156915 v -2.893839 h 3.140473 z"
       id="path2-6-20-8-5" />
    <path
       style="fill:none;stroke:#000000;stroke-width:0.266145"
       d="m 59.450636,28.691644 h -3.156914 v -2.89384 h 3.140473 z"
       id="path2-6-2-6-5-7" />
    <path
       style="fill:none;stroke:#000000;stroke-width:0.266145"
       d="m 55.292483,28.714452 h -3.156914 v -2.89384 h 3.140472 z"
       id="path2-6-2-5-1-0-4" />
    <path
       style="fill:none;stroke:#000000;stroke-width:0.266145"
       d="m 52.074703,32.926722 h 8.023829 v -7.793637 h -8.089598"
       id="path3-5-9-1" />
    <path
       style="fill:none;stroke:#000000;stroke-width:0.266145"
       d="m 59.417329,23.577684 h -3.156916 v -2.89384 h 3.140474 z"
       id="path2-5-63-8" />
    <path
       style="fill:none;stroke:#000000;stroke-width:0.266145"
       d="m 55.268971,23.551828 h -3.156915 v -2.89384 h 3.140473 z"
       id="path2-6-6-8-5" />
    <path
       style="fill:none;stroke:#000000;stroke-width:0.266145"
       d="M 59.427124,20.082509 H 56.27021 v -2.89384 h 3.140473 z"
       id="path2-6-2-9-56-9" />
    <path
       style="fill:none;stroke:#000000;stroke-width:0.266145"
       d="m 55.268971,20.105316 h -3.156914 v -2.893839 h 3.140472 z"
       id="path2-6-2-5-3-1-7" />
    <path
       style="fill:none;stroke:#000000;stroke-width:0.266145"
       d="M 52.051191,24.317587 H 60.07502 V 16.523949 H 51.985422"
       id="path3-7-1-5" />
    <path
       style="fill:none;stroke:#000000;stroke-width:0.266145"
       d="M 59.365255,15.045368 H 56.20834 v -2.893839 h 3.140474 z"
       id="path2-4-5-3" />
    <path
       style="fill:none;stroke:#000000;stroke-width:0.266145"
       d="m 55.216897,15.019513 h -3.156914 v -2.89384 h 3.140473 z"
       id="path2-6-74-9-8" />
    <path
       style="fill:none;stroke:#000000;stroke-width:0.266145"
       d="M 59.375051,11.550193 H 56.218136 V 8.6563534 h 3.140473 z"
       id="path2-6-2-43-8-8" />
    <path
       style="fill:none;stroke:#000000;stroke-width:0.266145"
       d="M 55.216897,11.573001 H 52.059984 V 8.6791612 h 3.140472 z"
       id="path2-6-2-5-0-4-3" />
    <path
       style="fill:none;stroke:#000000;stroke-width:0.266145"
       d="m 51.999118,15.785271 h 8.023829 V 7.9916339 h -8.089598"
       id="path3-78-8-1" />
    <path
       style="fill:none;stroke:#000000;stroke-width:0.264583"
       d="M 32.658888,18.111136 V 29.193582"
       id="path5" />
    <path
       style="fill:none;stroke:#000000;stroke-width:0.264583"
       d="M 35.829972,18.078444 V 29.193582"
       id="path6" />
    <path
       style="fill:none;stroke:#000000;stroke-width:0.264583"
       d="M 34.260776,29.193582 V 18.20921"
       id="path7" />
    <path
       style="fill:none;stroke:#000000;stroke-width:0.264583"
       d="M 21.798801,7.1198631 V 1.479452 h 10.194348 v 5.6404111"
       id="path8" />
    <path
       style="fill:none;stroke:#000000;stroke-width:0.264583"
       d="m 32.062499,1.4563356 h 6.472603 v 5.5248286"
       id="path9" />
    <path
       style="fill:none;stroke:#000000;stroke-width:0.264583"
       d="M 31.114724,58.85445 V 47.342464"
       id="path10" />
    <path
       style="fill:none;stroke:#000000;stroke-width:0.264583"
       d="M 37.402396,58.761986 V 47.388697"
       id="path11" />
  </g>
</svg>
